<svg width="21" height="31" viewBox="0 0 21 31" fill="none" xmlns="http://www.w3.org/2000/svg">
<g clip-path="url(#clip0)">
<path d="M14.1626 10.9556V4.06623L7.08128 0L0 4.06623V26.9355L7.08128 31.0017L13.9117 27.0793L13.9196 27.0836L21 23.0174V14.8824L14.1626 10.9556ZM19.6658 15.6481V22.249L14.1626 25.41V12.488L19.6658 15.6481ZM12.8283 19.846V24.9232L8.40766 22.385L12.8283 19.846ZM8.17165 20.9878V16.8921L11.7423 18.9399L8.17165 20.9878ZM8.42247 15.5061L12.8283 12.9766V18.0355L8.42247 15.5061ZM12.5767 26.3135L7.08128 29.4693L1.33335 26.1689V19.8452L6.83656 23.0061V23.0148L12.5767 26.3135ZM1.33422 18.0338V12.9653L5.74794 15.5L1.33422 18.0338ZM2.42458 18.9399L6.83743 16.4061V21.4746L2.42458 18.9399ZM12.8283 10.1812L7.08041 6.88071L1.33248 10.1812V4.83287L7.08041 1.53242L12.8283 4.83287V10.1812ZM12.5845 11.5732L7.08128 14.7342L1.5772 11.5732L7.08128 8.41312L12.5845 11.5732Z" fill="#0068FF"/>
</g>
<defs>
<clipPath id="clip0">
<rect width="21" height="31" fill="white"/>
</clipPath>
</defs>
</svg>
